<mxfile host="app.diagrams.net" modified="2023-01-02T13:24:48.391Z" agent="5.0 (Windows NT 10.0; Win64; x64) AppleWebKit/537.36 (KHTML, like Gecko) Chrome/108.0.0.0 Safari/537.36" etag="kf8Vn2if0-gcXjJKzgc9" version="20.7.4" type="github">
  <diagram id="dc44Bc8InzGhM4zJDq2q" name="Seite-1">
    <mxGraphModel dx="1900" dy="784" grid="1" gridSize="10" guides="1" tooltips="1" connect="1" arrows="1" fold="1" page="0" pageScale="1" pageWidth="827" pageHeight="1169" math="0" shadow="0">
      <root>
        <mxCell id="0" />
        <mxCell id="1" parent="0" />
        <mxCell id="9wh1O1opcWLXj4gbVkvc-10" value="" style="swimlane;startSize=0;rounded=0;shadow=0;glass=0;sketch=0;gradientColor=none;" parent="1" vertex="1">
          <mxGeometry x="250" y="210" width="420" height="470" as="geometry">
            <mxRectangle x="240" y="-560" width="50" height="40" as="alternateBounds" />
          </mxGeometry>
        </mxCell>
        <mxCell id="9wh1O1opcWLXj4gbVkvc-46" style="edgeStyle=none;rounded=0;orthogonalLoop=1;jettySize=auto;html=1;entryX=1;entryY=0.5;entryDx=0;entryDy=0;endArrow=none;endFill=0;" parent="9wh1O1opcWLXj4gbVkvc-10" source="y6YX-M8lazcvMa9vbHdX-20" target="9wh1O1opcWLXj4gbVkvc-45" edge="1">
          <mxGeometry relative="1" as="geometry" />
        </mxCell>
        <mxCell id="y6YX-M8lazcvMa9vbHdX-20" value="Push-Service" style="html=1;dropTarget=0;rounded=0;labelBackgroundColor=none;fontStyle=1;fontSize=20;" parent="9wh1O1opcWLXj4gbVkvc-10" vertex="1">
          <mxGeometry x="40" y="370" width="150" height="70" as="geometry" />
        </mxCell>
        <mxCell id="y6YX-M8lazcvMa9vbHdX-21" value="" style="shape=module;jettyWidth=8;jettyHeight=4;rounded=0;labelBackgroundColor=none;" parent="y6YX-M8lazcvMa9vbHdX-20" vertex="1">
          <mxGeometry x="1" width="20" height="20" relative="1" as="geometry">
            <mxPoint x="-27" y="7" as="offset" />
          </mxGeometry>
        </mxCell>
        <mxCell id="9wh1O1opcWLXj4gbVkvc-44" style="edgeStyle=none;rounded=0;orthogonalLoop=1;jettySize=auto;html=1;endArrow=none;endFill=0;" parent="9wh1O1opcWLXj4gbVkvc-10" source="y6YX-M8lazcvMa9vbHdX-14" target="9wh1O1opcWLXj4gbVkvc-42" edge="1">
          <mxGeometry relative="1" as="geometry" />
        </mxCell>
        <mxCell id="y6YX-M8lazcvMa9vbHdX-14" value="Klingelverwaltung" style="html=1;dropTarget=0;rounded=0;labelBackgroundColor=none;fontStyle=1;fontSize=18;" parent="9wh1O1opcWLXj4gbVkvc-10" vertex="1">
          <mxGeometry x="230" y="140" width="150" height="70" as="geometry" />
        </mxCell>
        <mxCell id="y6YX-M8lazcvMa9vbHdX-15" value="" style="shape=module;jettyWidth=8;jettyHeight=4;rounded=0;labelBackgroundColor=none;" parent="y6YX-M8lazcvMa9vbHdX-14" vertex="1">
          <mxGeometry x="1" width="20" height="20" relative="1" as="geometry">
            <mxPoint x="-27" y="7" as="offset" />
          </mxGeometry>
        </mxCell>
        <mxCell id="9wh1O1opcWLXj4gbVkvc-41" style="edgeStyle=none;rounded=0;orthogonalLoop=1;jettySize=auto;html=1;entryX=0;entryY=0.5;entryDx=0;entryDy=0;endArrow=none;endFill=0;" parent="9wh1O1opcWLXj4gbVkvc-10" source="y6YX-M8lazcvMa9vbHdX-35" target="9wh1O1opcWLXj4gbVkvc-39" edge="1">
          <mxGeometry relative="1" as="geometry" />
        </mxCell>
        <mxCell id="y6YX-M8lazcvMa9vbHdX-35" value="&lt;font style=&quot;font-size: 20px;&quot;&gt;&lt;b&gt;TÃ¼rsteuerung&lt;/b&gt;&lt;/font&gt;" style="html=1;dropTarget=0;rounded=0;labelBackgroundColor=none;" parent="9wh1O1opcWLXj4gbVkvc-10" vertex="1">
          <mxGeometry x="230" y="40" width="150" height="70" as="geometry" />
        </mxCell>
        <mxCell id="y6YX-M8lazcvMa9vbHdX-36" value="" style="shape=module;jettyWidth=8;jettyHeight=4;rounded=0;labelBackgroundColor=none;" parent="y6YX-M8lazcvMa9vbHdX-35" vertex="1">
          <mxGeometry x="1" width="20" height="20" relative="1" as="geometry">
            <mxPoint x="-27" y="7" as="offset" />
          </mxGeometry>
        </mxCell>
        <mxCell id="y6YX-M8lazcvMa9vbHdX-37" value="Anrufsteuerung" style="html=1;dropTarget=0;rounded=0;labelBackgroundColor=none;fontStyle=1;fontSize=20;" parent="9wh1O1opcWLXj4gbVkvc-10" vertex="1">
          <mxGeometry x="230" y="270" width="150" height="70" as="geometry" />
        </mxCell>
        <mxCell id="y6YX-M8lazcvMa9vbHdX-38" value="" style="shape=module;jettyWidth=8;jettyHeight=4;rounded=0;labelBackgroundColor=none;" parent="y6YX-M8lazcvMa9vbHdX-37" vertex="1">
          <mxGeometry x="1" width="20" height="20" relative="1" as="geometry">
            <mxPoint x="-27" y="7" as="offset" />
          </mxGeometry>
        </mxCell>
        <mxCell id="y6YX-M8lazcvMa9vbHdX-40" value="&lt;b&gt;&lt;font style=&quot;font-size: 20px;&quot;&gt;Videostream&lt;/font&gt;&lt;/b&gt;" style="html=1;dropTarget=0;rounded=0;labelBackgroundColor=none;" parent="9wh1O1opcWLXj4gbVkvc-10" vertex="1">
          <mxGeometry x="40" y="40" width="150" height="70" as="geometry" />
        </mxCell>
        <mxCell id="y6YX-M8lazcvMa9vbHdX-41" value="" style="shape=module;jettyWidth=8;jettyHeight=4;rounded=0;labelBackgroundColor=none;" parent="y6YX-M8lazcvMa9vbHdX-40" vertex="1">
          <mxGeometry x="1" width="20" height="20" relative="1" as="geometry">
            <mxPoint x="-27" y="7" as="offset" />
          </mxGeometry>
        </mxCell>
        <mxCell id="9wh1O1opcWLXj4gbVkvc-34" style="edgeStyle=none;rounded=0;orthogonalLoop=1;jettySize=auto;html=1;endArrow=none;endFill=0;" parent="9wh1O1opcWLXj4gbVkvc-10" source="y6YX-M8lazcvMa9vbHdX-45" target="y6YX-M8lazcvMa9vbHdX-37" edge="1">
          <mxGeometry relative="1" as="geometry" />
        </mxCell>
        <mxCell id="9wh1O1opcWLXj4gbVkvc-37" style="edgeStyle=none;rounded=0;orthogonalLoop=1;jettySize=auto;html=1;entryX=1;entryY=0.5;entryDx=0;entryDy=0;endArrow=none;endFill=0;" parent="9wh1O1opcWLXj4gbVkvc-10" source="y6YX-M8lazcvMa9vbHdX-45" target="9wh1O1opcWLXj4gbVkvc-35" edge="1">
          <mxGeometry relative="1" as="geometry" />
        </mxCell>
        <mxCell id="y6YX-M8lazcvMa9vbHdX-45" value="SIP-&lt;br&gt;Schnittstelle" style="html=1;dropTarget=0;rounded=0;labelBackgroundColor=none;fontStyle=1;fontSize=20;" parent="9wh1O1opcWLXj4gbVkvc-10" vertex="1">
          <mxGeometry x="40" y="270" width="150" height="70" as="geometry" />
        </mxCell>
        <mxCell id="y6YX-M8lazcvMa9vbHdX-46" value="" style="shape=module;jettyWidth=8;jettyHeight=4;rounded=0;labelBackgroundColor=none;" parent="y6YX-M8lazcvMa9vbHdX-45" vertex="1">
          <mxGeometry x="1" width="20" height="20" relative="1" as="geometry">
            <mxPoint x="-27" y="7" as="offset" />
          </mxGeometry>
        </mxCell>
        <mxCell id="y6YX-M8lazcvMa9vbHdX-49" value="Audiostream" style="html=1;dropTarget=0;rounded=0;labelBackgroundColor=none;fontStyle=1;fontSize=20;" parent="9wh1O1opcWLXj4gbVkvc-10" vertex="1">
          <mxGeometry x="40" y="140" width="150" height="70" as="geometry" />
        </mxCell>
        <mxCell id="y6YX-M8lazcvMa9vbHdX-50" value="" style="shape=module;jettyWidth=8;jettyHeight=4;rounded=0;labelBackgroundColor=none;" parent="y6YX-M8lazcvMa9vbHdX-49" vertex="1">
          <mxGeometry x="1" width="20" height="20" relative="1" as="geometry">
            <mxPoint x="-27" y="7" as="offset" />
          </mxGeometry>
        </mxCell>
        <mxCell id="9wh1O1opcWLXj4gbVkvc-12" value="&lt;font style=&quot;font-size: 20px;&quot;&gt;&lt;b&gt;Backend&lt;/b&gt;&lt;/font&gt;" style="text;html=1;align=center;verticalAlign=middle;resizable=0;points=[];autosize=1;strokeColor=none;fillColor=none;" parent="9wh1O1opcWLXj4gbVkvc-10" vertex="1">
          <mxGeometry x="155" y="-5" width="110" height="40" as="geometry" />
        </mxCell>
        <mxCell id="9wh1O1opcWLXj4gbVkvc-35" value="" style="whiteSpace=wrap;html=1;aspect=fixed;rounded=0;shadow=0;glass=0;sketch=0;gradientColor=none;" parent="9wh1O1opcWLXj4gbVkvc-10" vertex="1">
          <mxGeometry x="-10" y="295" width="20" height="20" as="geometry" />
        </mxCell>
        <mxCell id="9wh1O1opcWLXj4gbVkvc-39" value="" style="whiteSpace=wrap;html=1;aspect=fixed;rounded=0;shadow=0;glass=0;sketch=0;gradientColor=none;" parent="9wh1O1opcWLXj4gbVkvc-10" vertex="1">
          <mxGeometry x="410" y="65" width="20" height="20" as="geometry" />
        </mxCell>
        <mxCell id="9wh1O1opcWLXj4gbVkvc-42" value="" style="whiteSpace=wrap;html=1;aspect=fixed;rounded=0;shadow=0;glass=0;sketch=0;gradientColor=none;" parent="9wh1O1opcWLXj4gbVkvc-10" vertex="1">
          <mxGeometry x="410" y="165" width="20" height="20" as="geometry" />
        </mxCell>
        <mxCell id="9wh1O1opcWLXj4gbVkvc-45" value="" style="whiteSpace=wrap;html=1;aspect=fixed;rounded=0;shadow=0;glass=0;sketch=0;gradientColor=none;" parent="9wh1O1opcWLXj4gbVkvc-10" vertex="1">
          <mxGeometry x="-10" y="395" width="20" height="20" as="geometry" />
        </mxCell>
        <mxCell id="9wh1O1opcWLXj4gbVkvc-13" value="" style="whiteSpace=wrap;html=1;aspect=fixed;rounded=0;shadow=0;glass=0;sketch=0;gradientColor=none;" parent="9wh1O1opcWLXj4gbVkvc-10" vertex="1">
          <mxGeometry x="-10" y="120" width="20" height="20" as="geometry" />
        </mxCell>
        <mxCell id="9wh1O1opcWLXj4gbVkvc-16" style="edgeStyle=none;rounded=0;orthogonalLoop=1;jettySize=auto;html=1;endArrow=none;endFill=0;" parent="9wh1O1opcWLXj4gbVkvc-10" source="y6YX-M8lazcvMa9vbHdX-40" target="9wh1O1opcWLXj4gbVkvc-13" edge="1">
          <mxGeometry relative="1" as="geometry" />
        </mxCell>
        <mxCell id="9wh1O1opcWLXj4gbVkvc-17" style="edgeStyle=none;rounded=0;orthogonalLoop=1;jettySize=auto;html=1;endArrow=none;endFill=0;" parent="9wh1O1opcWLXj4gbVkvc-10" source="y6YX-M8lazcvMa9vbHdX-49" target="9wh1O1opcWLXj4gbVkvc-13" edge="1">
          <mxGeometry relative="1" as="geometry" />
        </mxCell>
        <mxCell id="9wh1O1opcWLXj4gbVkvc-22" value="" style="swimlane;startSize=0;rounded=0;shadow=0;glass=0;sketch=0;gradientColor=none;" parent="1" vertex="1">
          <mxGeometry x="540" y="800" width="420" height="260" as="geometry">
            <mxRectangle x="620" y="800" width="50" height="40" as="alternateBounds" />
          </mxGeometry>
        </mxCell>
        <mxCell id="9wh1O1opcWLXj4gbVkvc-23" value="Klingel Hardware" style="text;html=1;align=center;verticalAlign=middle;resizable=0;points=[];autosize=1;strokeColor=none;fillColor=none;fontSize=20;fontStyle=1" parent="9wh1O1opcWLXj4gbVkvc-22" vertex="1">
          <mxGeometry x="115" y="-5" width="190" height="40" as="geometry" />
        </mxCell>
        <mxCell id="9wh1O1opcWLXj4gbVkvc-70" style="edgeStyle=orthogonalEdgeStyle;rounded=0;orthogonalLoop=1;jettySize=auto;html=1;endArrow=none;endFill=0;" parent="9wh1O1opcWLXj4gbVkvc-22" source="y6YX-M8lazcvMa9vbHdX-12" target="9wh1O1opcWLXj4gbVkvc-69" edge="1">
          <mxGeometry relative="1" as="geometry" />
        </mxCell>
        <mxCell id="y6YX-M8lazcvMa9vbHdX-12" value="Klingelanzeige" style="html=1;dropTarget=0;rounded=0;labelBackgroundColor=none;fontStyle=1;fontSize=20;" parent="9wh1O1opcWLXj4gbVkvc-22" vertex="1">
          <mxGeometry x="230" y="60" width="150" height="70" as="geometry" />
        </mxCell>
        <mxCell id="y6YX-M8lazcvMa9vbHdX-13" value="" style="shape=module;jettyWidth=8;jettyHeight=4;rounded=0;labelBackgroundColor=none;" parent="y6YX-M8lazcvMa9vbHdX-12" vertex="1">
          <mxGeometry x="1" width="20" height="20" relative="1" as="geometry">
            <mxPoint x="-27" y="7" as="offset" />
          </mxGeometry>
        </mxCell>
        <mxCell id="9wh1O1opcWLXj4gbVkvc-26" style="edgeStyle=none;rounded=0;orthogonalLoop=1;jettySize=auto;html=1;endArrow=none;endFill=0;" parent="9wh1O1opcWLXj4gbVkvc-22" source="y6YX-M8lazcvMa9vbHdX-22" target="9wh1O1opcWLXj4gbVkvc-24" edge="1">
          <mxGeometry relative="1" as="geometry" />
        </mxCell>
        <mxCell id="y6YX-M8lazcvMa9vbHdX-22" value="Klingel" style="html=1;dropTarget=0;rounded=0;labelBackgroundColor=none;fontStyle=1;fontSize=20;" parent="9wh1O1opcWLXj4gbVkvc-22" vertex="1">
          <mxGeometry x="40" y="60" width="150" height="70" as="geometry" />
        </mxCell>
        <mxCell id="y6YX-M8lazcvMa9vbHdX-23" value="" style="shape=module;jettyWidth=8;jettyHeight=4;rounded=0;labelBackgroundColor=none;" parent="y6YX-M8lazcvMa9vbHdX-22" vertex="1">
          <mxGeometry x="1" width="20" height="20" relative="1" as="geometry">
            <mxPoint x="-27" y="7" as="offset" />
          </mxGeometry>
        </mxCell>
        <mxCell id="y6YX-M8lazcvMa9vbHdX-24" style="edgeStyle=orthogonalEdgeStyle;rounded=0;orthogonalLoop=1;jettySize=auto;html=1;labelBackgroundColor=none;fontColor=default;endArrow=none;endFill=0;" parent="9wh1O1opcWLXj4gbVkvc-22" source="y6YX-M8lazcvMa9vbHdX-12" target="y6YX-M8lazcvMa9vbHdX-22" edge="1">
          <mxGeometry relative="1" as="geometry" />
        </mxCell>
        <mxCell id="9wh1O1opcWLXj4gbVkvc-31" style="edgeStyle=none;rounded=0;orthogonalLoop=1;jettySize=auto;html=1;endArrow=none;endFill=0;" parent="9wh1O1opcWLXj4gbVkvc-22" source="9wh1O1opcWLXj4gbVkvc-20" target="9wh1O1opcWLXj4gbVkvc-28" edge="1">
          <mxGeometry relative="1" as="geometry" />
        </mxCell>
        <mxCell id="9wh1O1opcWLXj4gbVkvc-20" value="TÃ¼rschloss" style="html=1;dropTarget=0;rounded=0;shadow=0;glass=0;sketch=0;gradientColor=none;fontStyle=1;fontSize=20;" parent="9wh1O1opcWLXj4gbVkvc-22" vertex="1">
          <mxGeometry x="230" y="160" width="150" height="70" as="geometry" />
        </mxCell>
        <mxCell id="9wh1O1opcWLXj4gbVkvc-21" value="" style="shape=module;jettyWidth=8;jettyHeight=4;rounded=0;shadow=0;glass=0;sketch=0;gradientColor=none;" parent="9wh1O1opcWLXj4gbVkvc-20" vertex="1">
          <mxGeometry x="1" width="20" height="20" relative="1" as="geometry">
            <mxPoint x="-27" y="7" as="offset" />
          </mxGeometry>
        </mxCell>
        <mxCell id="9wh1O1opcWLXj4gbVkvc-24" value="" style="whiteSpace=wrap;html=1;aspect=fixed;rounded=0;shadow=0;glass=0;sketch=0;gradientColor=none;" parent="9wh1O1opcWLXj4gbVkvc-22" vertex="1">
          <mxGeometry x="-10" y="85" width="20" height="20" as="geometry" />
        </mxCell>
        <mxCell id="9wh1O1opcWLXj4gbVkvc-28" value="" style="whiteSpace=wrap;html=1;aspect=fixed;rounded=0;shadow=0;glass=0;sketch=0;gradientColor=none;" parent="9wh1O1opcWLXj4gbVkvc-22" vertex="1">
          <mxGeometry x="410" y="185" width="20" height="20" as="geometry" />
        </mxCell>
        <mxCell id="9wh1O1opcWLXj4gbVkvc-69" value="" style="whiteSpace=wrap;html=1;aspect=fixed;rounded=0;shadow=0;glass=0;sketch=0;gradientColor=none;" parent="9wh1O1opcWLXj4gbVkvc-22" vertex="1">
          <mxGeometry x="410" y="85" width="20" height="20" as="geometry" />
        </mxCell>
        <mxCell id="9wh1O1opcWLXj4gbVkvc-47" value="" style="swimlane;startSize=0;rounded=0;shadow=0;glass=0;sketch=0;gradientColor=none;" parent="1" vertex="1">
          <mxGeometry x="-120" y="760" width="420" height="340" as="geometry" />
        </mxCell>
        <mxCell id="9wh1O1opcWLXj4gbVkvc-48" value="Klingel App (Android / iOS)" style="text;html=1;align=center;verticalAlign=middle;resizable=0;points=[];autosize=1;strokeColor=none;fillColor=none;fontSize=20;fontStyle=1" parent="9wh1O1opcWLXj4gbVkvc-47" vertex="1">
          <mxGeometry x="70" y="-5" width="280" height="40" as="geometry" />
        </mxCell>
        <mxCell id="y6YX-M8lazcvMa9vbHdX-1" value="Anrufanzeige" style="html=1;dropTarget=0;rounded=0;labelBackgroundColor=none;fontStyle=1;fontSize=20;" parent="9wh1O1opcWLXj4gbVkvc-47" vertex="1">
          <mxGeometry x="40" y="140" width="150" height="70" as="geometry" />
        </mxCell>
        <mxCell id="y6YX-M8lazcvMa9vbHdX-2" value="" style="shape=module;jettyWidth=8;jettyHeight=4;rounded=0;labelBackgroundColor=none;" parent="y6YX-M8lazcvMa9vbHdX-1" vertex="1">
          <mxGeometry x="1" width="20" height="20" relative="1" as="geometry">
            <mxPoint x="-27" y="7" as="offset" />
          </mxGeometry>
        </mxCell>
        <mxCell id="9wh1O1opcWLXj4gbVkvc-54" style="edgeStyle=none;rounded=0;orthogonalLoop=1;jettySize=auto;html=1;endArrow=none;endFill=0;" parent="9wh1O1opcWLXj4gbVkvc-47" source="y6YX-M8lazcvMa9vbHdX-5" target="9wh1O1opcWLXj4gbVkvc-53" edge="1">
          <mxGeometry relative="1" as="geometry" />
        </mxCell>
        <mxCell id="y6YX-M8lazcvMa9vbHdX-5" value="Videoplayer" style="html=1;dropTarget=0;rounded=0;labelBackgroundColor=none;fontStyle=1;fontSize=20;" parent="9wh1O1opcWLXj4gbVkvc-47" vertex="1">
          <mxGeometry x="40" y="240" width="150" height="70" as="geometry" />
        </mxCell>
        <mxCell id="y6YX-M8lazcvMa9vbHdX-6" value="" style="shape=module;jettyWidth=8;jettyHeight=4;rounded=0;labelBackgroundColor=none;" parent="y6YX-M8lazcvMa9vbHdX-5" vertex="1">
          <mxGeometry x="1" width="20" height="20" relative="1" as="geometry">
            <mxPoint x="-27" y="7" as="offset" />
          </mxGeometry>
        </mxCell>
        <mxCell id="y6YX-M8lazcvMa9vbHdX-34" style="edgeStyle=orthogonalEdgeStyle;rounded=0;orthogonalLoop=1;jettySize=auto;html=1;labelBackgroundColor=none;fontColor=default;endArrow=none;endFill=0;" parent="9wh1O1opcWLXj4gbVkvc-47" source="y6YX-M8lazcvMa9vbHdX-1" target="y6YX-M8lazcvMa9vbHdX-5" edge="1">
          <mxGeometry relative="1" as="geometry" />
        </mxCell>
        <mxCell id="y6YX-M8lazcvMa9vbHdX-16" value="Klingel-&lt;br&gt;anzeige-Menu" style="html=1;dropTarget=0;rounded=0;labelBackgroundColor=none;fontStyle=1;fontSize=18;" parent="9wh1O1opcWLXj4gbVkvc-47" vertex="1">
          <mxGeometry x="230" y="40" width="150" height="70" as="geometry" />
        </mxCell>
        <mxCell id="y6YX-M8lazcvMa9vbHdX-17" value="" style="shape=module;jettyWidth=8;jettyHeight=4;rounded=0;labelBackgroundColor=none;" parent="y6YX-M8lazcvMa9vbHdX-16" vertex="1">
          <mxGeometry x="1" width="20" height="20" relative="1" as="geometry">
            <mxPoint x="-27" y="7" as="offset" />
          </mxGeometry>
        </mxCell>
        <mxCell id="9wh1O1opcWLXj4gbVkvc-50" style="edgeStyle=none;rounded=0;orthogonalLoop=1;jettySize=auto;html=1;entryX=1;entryY=0.5;entryDx=0;entryDy=0;endArrow=none;endFill=0;" parent="9wh1O1opcWLXj4gbVkvc-47" source="y6YX-M8lazcvMa9vbHdX-29" target="9wh1O1opcWLXj4gbVkvc-49" edge="1">
          <mxGeometry relative="1" as="geometry" />
        </mxCell>
        <mxCell id="y6YX-M8lazcvMa9vbHdX-29" value="Push-&lt;br style=&quot;font-size: 18px;&quot;&gt;Benachrichtigung" style="html=1;dropTarget=0;rounded=0;labelBackgroundColor=none;fontStyle=1;fontSize=18;" parent="9wh1O1opcWLXj4gbVkvc-47" vertex="1">
          <mxGeometry x="40" y="40" width="150" height="70" as="geometry" />
        </mxCell>
        <mxCell id="y6YX-M8lazcvMa9vbHdX-30" value="" style="shape=module;jettyWidth=8;jettyHeight=4;rounded=0;labelBackgroundColor=none;" parent="y6YX-M8lazcvMa9vbHdX-29" vertex="1">
          <mxGeometry x="1" width="20" height="20" relative="1" as="geometry">
            <mxPoint x="-27" y="7" as="offset" />
          </mxGeometry>
        </mxCell>
        <mxCell id="9wh1O1opcWLXj4gbVkvc-49" value="" style="whiteSpace=wrap;html=1;aspect=fixed;rounded=0;shadow=0;glass=0;sketch=0;gradientColor=none;" parent="9wh1O1opcWLXj4gbVkvc-47" vertex="1">
          <mxGeometry x="-10" y="65" width="20" height="20" as="geometry" />
        </mxCell>
        <mxCell id="9wh1O1opcWLXj4gbVkvc-51" value="&lt;font style=&quot;font-size: 17px;&quot;&gt;TÃ¼r-&lt;br&gt;steuerungsanzeige&lt;/font&gt;" style="html=1;dropTarget=0;rounded=0;shadow=0;glass=0;sketch=0;gradientColor=none;fontStyle=1;fontSize=18;" parent="9wh1O1opcWLXj4gbVkvc-47" vertex="1">
          <mxGeometry x="230" y="140" width="150" height="70" as="geometry" />
        </mxCell>
        <mxCell id="9wh1O1opcWLXj4gbVkvc-52" value="" style="shape=module;jettyWidth=8;jettyHeight=4;rounded=0;shadow=0;glass=0;sketch=0;gradientColor=none;" parent="9wh1O1opcWLXj4gbVkvc-51" vertex="1">
          <mxGeometry x="1" width="20" height="20" relative="1" as="geometry">
            <mxPoint x="-27" y="7" as="offset" />
          </mxGeometry>
        </mxCell>
        <mxCell id="9wh1O1opcWLXj4gbVkvc-53" value="" style="whiteSpace=wrap;html=1;aspect=fixed;rounded=0;shadow=0;glass=0;sketch=0;gradientColor=none;" parent="9wh1O1opcWLXj4gbVkvc-47" vertex="1">
          <mxGeometry x="-10" y="265" width="20" height="20" as="geometry" />
        </mxCell>
        <mxCell id="9wh1O1opcWLXj4gbVkvc-55" value="" style="whiteSpace=wrap;html=1;aspect=fixed;rounded=0;shadow=0;glass=0;sketch=0;gradientColor=none;" parent="9wh1O1opcWLXj4gbVkvc-47" vertex="1">
          <mxGeometry x="-10" y="165" width="20" height="20" as="geometry" />
        </mxCell>
        <mxCell id="9wh1O1opcWLXj4gbVkvc-58" value="" style="whiteSpace=wrap;html=1;aspect=fixed;rounded=0;shadow=0;glass=0;sketch=0;gradientColor=none;" parent="9wh1O1opcWLXj4gbVkvc-47" vertex="1">
          <mxGeometry x="410" y="165" width="20" height="20" as="geometry" />
        </mxCell>
        <mxCell id="9wh1O1opcWLXj4gbVkvc-59" value="" style="whiteSpace=wrap;html=1;aspect=fixed;rounded=0;shadow=0;glass=0;sketch=0;gradientColor=none;" parent="9wh1O1opcWLXj4gbVkvc-47" vertex="1">
          <mxGeometry x="410" y="65" width="20" height="20" as="geometry" />
        </mxCell>
        <mxCell id="9wh1O1opcWLXj4gbVkvc-63" style="edgeStyle=none;rounded=0;orthogonalLoop=1;jettySize=auto;html=1;endArrow=none;endFill=0;" parent="9wh1O1opcWLXj4gbVkvc-47" source="y6YX-M8lazcvMa9vbHdX-1" target="9wh1O1opcWLXj4gbVkvc-55" edge="1">
          <mxGeometry relative="1" as="geometry" />
        </mxCell>
        <mxCell id="9wh1O1opcWLXj4gbVkvc-62" style="edgeStyle=none;rounded=0;orthogonalLoop=1;jettySize=auto;html=1;entryX=0;entryY=0.5;entryDx=0;entryDy=0;endArrow=none;endFill=0;" parent="9wh1O1opcWLXj4gbVkvc-47" source="9wh1O1opcWLXj4gbVkvc-51" target="9wh1O1opcWLXj4gbVkvc-58" edge="1">
          <mxGeometry relative="1" as="geometry" />
        </mxCell>
        <mxCell id="9wh1O1opcWLXj4gbVkvc-61" style="edgeStyle=none;rounded=0;orthogonalLoop=1;jettySize=auto;html=1;endArrow=none;endFill=0;" parent="9wh1O1opcWLXj4gbVkvc-47" source="y6YX-M8lazcvMa9vbHdX-16" target="9wh1O1opcWLXj4gbVkvc-59" edge="1">
          <mxGeometry relative="1" as="geometry" />
        </mxCell>
        <mxCell id="9wh1O1opcWLXj4gbVkvc-71" style="edgeStyle=orthogonalEdgeStyle;rounded=0;orthogonalLoop=1;jettySize=auto;html=1;entryX=1;entryY=0.5;entryDx=0;entryDy=0;endArrow=classic;endFill=1;" parent="1" source="9wh1O1opcWLXj4gbVkvc-42" target="9wh1O1opcWLXj4gbVkvc-69" edge="1">
          <mxGeometry relative="1" as="geometry" />
        </mxCell>
        <mxCell id="9wh1O1opcWLXj4gbVkvc-72" style="edgeStyle=orthogonalEdgeStyle;rounded=0;orthogonalLoop=1;jettySize=auto;html=1;entryX=1;entryY=0.5;entryDx=0;entryDy=0;endArrow=classic;endFill=1;" parent="1" source="9wh1O1opcWLXj4gbVkvc-39" target="9wh1O1opcWLXj4gbVkvc-28" edge="1">
          <mxGeometry relative="1" as="geometry">
            <Array as="points">
              <mxPoint x="1020" y="285" />
              <mxPoint x="1020" y="995" />
            </Array>
          </mxGeometry>
        </mxCell>
        <mxCell id="9wh1O1opcWLXj4gbVkvc-74" style="edgeStyle=orthogonalEdgeStyle;rounded=0;orthogonalLoop=1;jettySize=auto;html=1;endArrow=classic;endFill=1;" parent="1" source="9wh1O1opcWLXj4gbVkvc-53" edge="1">
          <mxGeometry relative="1" as="geometry">
            <mxPoint x="240" y="340" as="targetPoint" />
            <Array as="points">
              <mxPoint x="-210" y="1035" />
              <mxPoint x="-210" y="340" />
            </Array>
          </mxGeometry>
        </mxCell>
        <mxCell id="9wh1O1opcWLXj4gbVkvc-75" style="edgeStyle=orthogonalEdgeStyle;rounded=0;orthogonalLoop=1;jettySize=auto;html=1;entryX=0;entryY=0.5;entryDx=0;entryDy=0;endArrow=classic;endFill=1;" parent="1" source="9wh1O1opcWLXj4gbVkvc-55" target="9wh1O1opcWLXj4gbVkvc-35" edge="1">
          <mxGeometry relative="1" as="geometry">
            <Array as="points">
              <mxPoint x="-180" y="935" />
              <mxPoint x="-180" y="515" />
            </Array>
          </mxGeometry>
        </mxCell>
        <mxCell id="9wh1O1opcWLXj4gbVkvc-76" style="edgeStyle=orthogonalEdgeStyle;rounded=0;orthogonalLoop=1;jettySize=auto;html=1;entryX=0;entryY=0.5;entryDx=0;entryDy=0;endArrow=classic;endFill=1;" parent="1" source="9wh1O1opcWLXj4gbVkvc-45" target="9wh1O1opcWLXj4gbVkvc-49" edge="1">
          <mxGeometry relative="1" as="geometry" />
        </mxCell>
        <mxCell id="9wh1O1opcWLXj4gbVkvc-77" style="edgeStyle=orthogonalEdgeStyle;rounded=0;orthogonalLoop=1;jettySize=auto;html=1;entryX=0;entryY=0.75;entryDx=0;entryDy=0;endArrow=classic;endFill=1;" parent="1" source="9wh1O1opcWLXj4gbVkvc-24" target="9wh1O1opcWLXj4gbVkvc-45" edge="1">
          <mxGeometry relative="1" as="geometry">
            <Array as="points">
              <mxPoint x="520" y="895" />
              <mxPoint x="520" y="710" />
              <mxPoint x="220" y="710" />
              <mxPoint x="220" y="620" />
            </Array>
          </mxGeometry>
        </mxCell>
        <mxCell id="9wh1O1opcWLXj4gbVkvc-80" style="edgeStyle=orthogonalEdgeStyle;rounded=0;orthogonalLoop=1;jettySize=auto;html=1;entryX=1;entryY=0.75;entryDx=0;entryDy=0;endArrow=classic;endFill=1;" parent="1" source="9wh1O1opcWLXj4gbVkvc-58" target="9wh1O1opcWLXj4gbVkvc-39" edge="1">
          <mxGeometry relative="1" as="geometry">
            <Array as="points">
              <mxPoint x="360" y="935" />
              <mxPoint x="360" y="770" />
              <mxPoint x="740" y="770" />
              <mxPoint x="740" y="290" />
            </Array>
          </mxGeometry>
        </mxCell>
        <mxCell id="9wh1O1opcWLXj4gbVkvc-81" style="edgeStyle=orthogonalEdgeStyle;rounded=0;orthogonalLoop=1;jettySize=auto;html=1;entryX=1;entryY=0.75;entryDx=0;entryDy=0;endArrow=classic;endFill=1;" parent="1" source="9wh1O1opcWLXj4gbVkvc-59" target="9wh1O1opcWLXj4gbVkvc-42" edge="1">
          <mxGeometry relative="1" as="geometry">
            <Array as="points">
              <mxPoint x="330" y="835" />
              <mxPoint x="330" y="740" />
              <mxPoint x="710" y="740" />
              <mxPoint x="710" y="390" />
            </Array>
          </mxGeometry>
        </mxCell>
      </root>
    </mxGraphModel>
  </diagram>
</mxfile>
